<?xml version="1.0" standalone="no"?>
<!DOCTYPE svg PUBLIC "-//W3C//DTD SVG 20010904//EN"
 "http://www.w3.org/TR/2001/REC-SVG-20010904/DTD/svg10.dtd">
<svg version="1.0" xmlns="http://www.w3.org/2000/svg"
 width="530.000000pt" height="530.000000pt" viewBox="0 0 530.000000 530.000000"
 preserveAspectRatio="xMidYMid meet">
<metadata>
Created by potrace 1.11, written by Peter Selinger 2001-2013
</metadata>
<g transform="translate(0.000000,530.000000) scale(0.100000,-0.100000)"
fill="#000000" stroke="none">
<path d="M1078 3395 c-3 -3 -85 -11 -206 -20 -34 -3 -75 -7 -90 -9 -15 -3 -52
-8 -82 -12 -30 -3 -66 -8 -80 -10 -14 -2 -38 -6 -55 -8 -116 -15 -141 -19
-148 -23 -7 -4 -2 -160 8 -243 2 -14 3 -35 4 -47 1 -14 7 -23 16 -23 26 0 93
-81 115 -140 21 -54 35 -113 46 -195 27 -189 38 -245 63 -317 72 -210 183
-327 376 -398 43 -16 63 -21 120 -36 132 -32 410 -37 535 -9 14 4 39 9 55 12
17 3 32 8 35 11 3 4 12 9 20 11 29 7 45 9 57 10 6 1 18 7 25 13 7 7 18 13 23
14 19 2 75 28 75 36 0 4 7 8 15 8 8 0 15 5 15 12 0 6 3 8 7 5 7 -8 80 50 140
111 43 44 128 164 124 176 -1 4 5 13 13 21 15 16 116 249 116 269 0 7 3 16 7
20 4 3 8 12 9 19 4 31 66 164 86 187 71 79 198 72 261 -12 37 -49 54 -87 93
-205 20 -59 46 -131 60 -161 13 -29 24 -57 24 -62 0 -6 5 -10 10 -10 6 0 9 -3
9 -7 -3 -21 2 -33 13 -27 6 4 8 3 4 -4 -5 -9 34 -78 69 -119 5 -7 26 -32 45
-56 45 -56 112 -111 190 -158 66 -40 178 -87 220 -91 14 -2 27 -6 30 -9 19
-24 351 -43 480 -27 186 23 341 91 444 194 65 66 154 215 160 268 1 12 5 26 8
31 10 19 21 80 37 220 15 131 23 173 39 216 6 15 8 30 5 33 -4 3 -2 6 4 6 6 0
14 10 17 23 7 24 60 87 74 87 5 0 18 10 30 23 19 20 23 38 27 128 3 57 7 123
10 146 4 46 3 47 -65 57 -19 4 -48 8 -65 11 -16 3 -52 7 -80 10 -27 3 -60 7
-72 9 -22 5 -112 15 -188 22 -22 2 -76 7 -120 11 -98 10 -554 10 -650 1 -111
-11 -168 -18 -195 -23 -14 -3 -43 -8 -65 -11 -22 -3 -47 -10 -56 -15 -9 -4
-19 -6 -21 -3 -6 6 -150 -32 -308 -81 -188 -59 -237 -68 -360 -66 -104 1 -217
24 -410 84 -149 46 -254 74 -310 82 -25 3 -52 8 -60 10 -8 2 -42 7 -75 11 -33
3 -71 9 -85 11 -28 5 -617 13 -622 8z"/>
</g>
</svg>
